# Blender3D v245 OBJ File: untitled.blend
# www.blender3d.org
mtllib cube_Scene.mtl
o Cube_Cube.002
v 2.290376 0.771969 -0.116364
v 1.495346 -0.947306 0.525523
v 0.414982 -1.074310 -1.152775
v 1.210012 0.644966 -1.794661
v 0.806887 1.785853 0.761873
v 0.011857 0.066577 1.403759
v -1.068507 -0.060426 -0.274538
v -0.273477 1.658849 -0.916424
vn 0.741744 -0.506942 -0.439118
vn -0.741745 0.506942 0.439118
vn 0.540182 0.063502 0.839149
vn -0.397515 -0.859638 0.320943
vn -0.540182 -0.063502 -0.839149
vn 0.397515 0.859638 -0.320943
usemtl (null)
s off
f 1//1 2//1 3//1 4//1
f 5//2 8//2 7//2 6//2
f 1//3 5//3 6//3 2//3
f 2//4 6//4 7//4 3//4
f 3//5 7//5 8//5 4//5
f 5//6 1//6 4//6 8//6
